inDegrees=no
num_controls=7
num_derivatives=13
num_iterations=32
num_multipliers=7
num_parameters=0
num_slacks=7
num_states=26
objective=0.617349
objective_accelerations=0.111743
objective_balance=0.000929
objective_effort=0.022228
objective_height=0.473241
objective_ligament=0.009208
solver_duration=524.952852
status=Solve_Succeeded
success=true
DataType=double
version=3
OpenSimVersion=4.5
endheader
time	/jointset/ground_pelvis/pelvis_tilt/value	/jointset/ground_pelvis/pelvis_tx/value	/jointset/ground_pelvis/pelvis_ty/value	/jointset/hip_l/hip_flexion_l/value	/jointset/hip_l/hip_adduction_l/value	/jointset/hip_l/hip_rotation_l/value	/jointset/back/lumbar_extension/value	/jointset/patellofemoral_l/patellar_flexion_l/value	/jointset/knee_l/knee_flexion_l/value	/jointset/knee_l/knee_adduction_l/value	/jointset/knee_l/knee_rotation_l/value	/jointset/ankle_l/ankle_angle_l/value	/jointset/subtalar_l/subtalar_angle_l/value	/jointset/ground_pelvis/pelvis_tilt/speed	/jointset/ground_pelvis/pelvis_tx/speed	/jointset/ground_pelvis/pelvis_ty/speed	/jointset/hip_l/hip_flexion_l/speed	/jointset/hip_l/hip_adduction_l/speed	/jointset/hip_l/hip_rotation_l/speed	/jointset/back/lumbar_extension/speed	/jointset/patellofemoral_l/patellar_flexion_l/speed	/jointset/knee_l/knee_flexion_l/speed	/jointset/knee_l/knee_adduction_l/speed	/jointset/knee_l/knee_rotation_l/speed	/jointset/ankle_l/ankle_angle_l/speed	/jointset/subtalar_l/subtalar_angle_l/speed	/forceset/tau_hip_flexion_l	/forceset/tau_hip_adduction_l	/forceset/tau_hip_rotation_l	/forceset/tau_knee_flexion_l	/forceset/tau_ankle_angle_l	/forceset/tau_subtalar_angle_l	/forceset/tau_lumbar_extension	lambda_cid13_p0	lambda_cid13_p1	lambda_cid13_p2	lambda_cid13_p3	lambda_cid13_p4	lambda_cid13_p5	lambda_cid14_p0	/jointset/ground_pelvis/pelvis_tilt/accel	/jointset/ground_pelvis/pelvis_tx/accel	/jointset/ground_pelvis/pelvis_ty/accel	/jointset/hip_l/hip_flexion_l/accel	/jointset/hip_l/hip_adduction_l/accel	/jointset/hip_l/hip_rotation_l/accel	/jointset/back/lumbar_extension/accel	/jointset/patellofemoral_l/patellar_flexion_l/accel	/jointset/knee_l/knee_flexion_l/accel	/jointset/knee_l/knee_adduction_l/accel	/jointset/knee_l/knee_rotation_l/accel	/jointset/ankle_l/ankle_angle_l/accel	/jointset/subtalar_l/subtalar_angle_l/accel	gamma_cid13_p0	gamma_cid13_p1	gamma_cid13_p2	gamma_cid13_p3	gamma_cid13_p4	gamma_cid13_p5	gamma_cid14_p0
0	0.06593154466744693	0.09923543762042307	0.906906981952401	0.1266922784136757	-0.3325766422115848	-0.2087786034806978	-0.2144969558742783	0.2051545070142225	0.2051545070141877	-0.09996600466140389	-0.1265440102765042	0.09024313228550125	0.1196898540897303	0	0	0	0	0	0	0	0	0	0	0	0	0	0.1166239052694417	-0.002756407811660085	-0.0003962368384703377	-0.2322482113974438	0.1737390273133047	-0.08672185743613937	-0.05160544612135932	24.01719611432516	37.59992629964415	-11.00646794174304	-9.517340347747997	-431.3100402707374	-24.75083384050177	-24.6047371556798	-4.488256522401799	-1.553517215556358	-1.198731504994144	15.11983282603711	-0.5086237939925691	3.461627533301907	-3.282547635890167	13.97561715747311	13.9756171574732	2.24442046508653	-1.354531992919725	4.317030255356689	0.8429935335926403	-4.021873870661374e-08	8.119725885743955e-07	-2.685227916871963e-07	9.244131318388553e-08	-4.290835551902925e-08	5.362811224219315e-07	8.195094886212128e-08
0.01	0.06571218122823115	0.09915590238590999	0.9068484030373536	0.1274355424114578	-0.3326006910112141	-0.208604516168539	-0.2146800140018709	0.2058362737964915	0.2058362737964232	-0.09985548741374002	-0.1266051947957992	0.09044900298573931	0.1197301688718492	-0.04429066239873513	-0.01612844477141496	-0.0117245326799864	0.1489372600286631	-0.004797358425918609	0.03454021813599911	-0.03753592041650487	0.1355590599972066	0.1355590599972118	0.02192259963740822	-0.0122910642679748	0.04042863706765095	0.007831944354233846	0.124125730016399	-0.01192932978042678	-0.0009567219480563011	-0.241731912558007	0.1803168029444011	-0.08117981481749494	-0.05782050573006791	26.35123120371779	35.12005041752202	-10.99456427234444	-9.4094581666401	-432.5288932363511	-31.17463690908442	-24.60634844983116	-4.462171745197063	-1.675699301771554	-1.160635181683062	14.82333509599232	-0.4634901115848644	3.408698946600335	-4.127758477536526	13.22688956562392	13.22688956562494	2.139150863344543	-1.17457908210739	3.793971348510314	0.7185486919327962	-4.97591407520696e-08	6.735857701263837e-07	-2.536648637000227e-07	1.026465993120824e-07	-2.532655512423326e-07	3.701376555510261e-07	8.535458367669664e-08
0.02	0.06503737103568163	0.09890844446491377	0.90667231458907	0.1296767115103266	-0.3326723530439977	-0.2080933306763925	-0.2152661601802588	0.2078497990074907	0.2078497990074939	-0.09953114993939483	-0.1267909270457889	0.09103679823989065	0.1198418538586299	-0.09108935066075372	-0.03358453729662401	-0.02350190664721794	0.2995810202458439	-0.009522646639540439	0.06741963598602975	-0.08061761015314034	0.2663516857856052	0.2663516857856143	0.04276404528584547	-0.0249095460707852	0.07638491077694168	0.01427404093221133	0.1316275547614834	-0.02110225174936025	-0.001517207055912367	-0.2512156137197513	0.1868945785750981	-0.07563777219918744	-0.06403556533998837	28.75019640576531	32.64218214425543	-10.99826065193586	-9.33915459832207	-432.5598440412484	-37.34773091707489	-24.61089665600074	-4.989861695057713	-1.819046766315811	-1.209299762443149	15.46113286374068	-0.494209751533261	3.129467476108269	-4.39170149991586	13.02233031571169	13.02233031571153	2.028189667292283	-1.420015499886977	3.422557583683962	0.5650239783410814	-5.929954279752547e-08	5.351989516783718e-07	-2.388069357128492e-07	1.128518854402793e-07	-4.636227469656359e-07	2.039941886801206e-07	8.875821849127201e-08
0.03	0.06389177696331992	0.09848465423153073	0.9063781122526349	0.1334191724490956	-0.332791913098417	-0.2072611066345494	-0.216292638414353	0.2111534814775382	0.2111534814776491	-0.09900436307743178	-0.1271051490060493	0.09197209196656851	0.1200133686926333	-0.1373753649100761	-0.05090571503617478	-0.03534095471612047	0.4476809575933512	-0.0144725192812299	0.09903414080017522	-0.1238880670785017	0.3941168798386889	0.3941168798387025	0.06233091466895931	-0.03780701487037721	0.1109414816415156	0.02003033470608545	0.1227543469765503	-0.01640384027964061	-0.0007253957157554315	-0.2420565018096154	0.178469576893954	-0.07616833240011142	-0.05690421903951624	26.18110707437216	32.95638863871231	-10.63024305669936	-9.348092092604803	-430.9960749073459	-35.13569312636007	-24.61779108077454	-4.349847801269449	-1.648461516229119	-1.17166001495509	14.29989336294662	-0.5078945863606401	3.178845457019543	-4.176222349491119	12.61340692532274	12.61340692532349	1.881643905724661	-1.205492822374546	3.512362294330606	0.5810898687038147	-8.720812188808465e-08	7.246890480586025e-07	-1.517368402503875e-07	1.359212748888205e-07	-6.246222995531896e-07	2.028071912781864e-07	9.398457514010695e-08
0.04	0.06230294744614839	0.09789569057305945	0.9059654288983394	0.1386057265998517	-0.3329634755924192	-0.2061124568499652	-0.2177281221298368	0.215726774483294	0.2157267744832929	-0.09828976585521211	-0.1275445217045426	0.0932609824931916	0.1202424780227345	-0.1797364396152291	-0.06661922231426744	-0.04719811021921792	0.5883996626484745	-0.01992313455785832	0.130704784532402	-0.1624187064295568	0.5202737929004166	0.5202737929004336	0.08032611732822485	-0.04993969376515952	0.147104270765548	0.02579294015168771	0.1138811391915354	-0.01170542880995358	6.641562305068638e-05	-0.2328973898995338	0.1700445752127466	-0.07669889260107243	-0.04977287273900397	23.66943664903437	33.2744346533016	-10.27870608001001	-9.388860439369852	-428.3819482706394	-32.69048514788541	-24.6257379572167	-4.204873786222989	-1.497512674024773	-1.212921249282111	13.98488640526394	-0.5943582785211157	3.140695259724575	-3.443737985054113	12.70067411744064	12.70067411744024	1.713856322522561	-1.267057518925166	3.743801235575014	0.5662863126864386	-1.154954262785429e-07	9.209394931981786e-07	-6.317783411833224e-08	1.592559035810802e-07	-7.846041687771198e-07	2.050213581952001e-07	9.924851368243179e-08
0.05	0.06030138007004413	0.09715500402755253	0.905433648330084	0.1451721381195693	-0.333189688542319	-0.2046486377959841	-0.2195298622672437	0.2215467620783278	0.2215467620782986	-0.09740028373009088	-0.1281002791394462	0.09491205451545033	0.1205293763833927	-0.2207286969683511	-0.08151008120407242	-0.05919031454195533	0.7244897370067611	-0.02515876024408405	0.16184847444367	-0.1976739581961508	0.6427054195097537	0.6427054195097683	0.09759285552785474	-0.06098382931064096	0.1826097887358786	0.03160361089187378	0.1121410238342041	-0.01055040552763132	0.0003081327520595473	-0.2325775218812759	0.1679864556694253	-0.0759516707125219	-0.04854766369700501	23.07050538874741	33.02892644620705	-10.21002901433605	-8.676798198302217	-427.8038361783182	-32.65902498582778	-24.6329894948789	-4.069145940177502	-1.483639620740833	-1.197374903829885	13.36212427914682	-0.4641783216593469	3.069667133642676	-3.528114342990143	11.86164105192328	11.86164105192326	1.736615442053911	-0.9889295955681253	3.378893098058875	0.590853083376195	-1.098050701900677e-07	7.054476738918621e-07	-1.973607164009324e-07	1.60628854993778e-07	-8.568291576202273e-07	2.301087061020287e-07	1.011485589223638e-07
0.06	0.05788534127430318	0.09626565546828959	0.9047809447425864	0.1530876616484632	-0.3334634604706693	-0.2028796895875187	-0.2216764940364301	0.228560512763265	0.2285605127632577	-0.09633742764823144	-0.1287596455345147	0.09690317492147939	0.1208748605771913	-0.2626307235341058	-0.09635162506547128	-0.07138271406760045	0.8582220644864972	-0.02943493024972766	0.191730615427518	-0.2313970327837746	0.7590264108888135	0.7590264108888268	0.1150009086623092	-0.07066148578446713	0.2151139475180735	0.03751010677971484	0.1104009084769625	-0.009395382245387163	0.0005498498814732764	-0.2322576538631212	0.1659283361260394	-0.07520444882408174	-0.04732245465485367	22.52353512713584	32.78699642194794	-10.15640162248159	-7.998323751003249	-426.2771858199358	-32.4181578567197	-24.63704001520295	-4.386827628748696	-1.487649668344078	-1.252960289863632	13.51333702955393	-0.4024671424047346	2.888385474240627	-3.137302549259572	11.47854707138533	11.47854707138515	1.742119309487421	-0.9937617045942403	3.143529397947299	0.5854513422171908	-1.026840757656374e-07	4.726193381878241e-07	-3.409222045115181e-07	1.61077104205231e-07	-9.253591199209842e-07	2.561591353136916e-07	1.029069665495636e-07
